# xmcd
#
# Track frame offsets: 
#        150
#        17056
#        31978
#        51325
#        70996
#        87160
#        107718
#        130868
#        151516
#        174807
#
# Disc length: 2551 seconds
#
# Revision: 0
# Processed by: cddbd v1.5.2PL0 Copyright (c) Steve Scherf et al.
# Submitted via: ExactAudioCopy v0.99pb5
#
DISCID=7209f50a
DTITLE=Borgore - Gorestep Vol. 1.1
DYEAR=2009
DGENRE=Dubstep
TTITLE0=Intro
TTITLE1=Saturday Night
TTITLE2=Mama's Boy
TTITLE3=Love (the Gagging Version)
TTITLE4=Borgore Ina Trouble
TTITLE5=Sunday Morning
TTITLE6=5 Years VIP (Bjork's Cover) (Ft Adi Ulmansky)
TTITLE7=Kill a Man (Ft Shay)
TTITLE8=Summertime (Ft Yael Borger)
TTITLE9=Outro
EXTD=
EXTT0=
EXTT1=
EXTT2=
EXTT3=
EXTT4=
EXTT5=
EXTT6=
EXTT7=
EXTT8=
EXTT9=
PLAYORDER=
